<svg id="visual" viewBox="0 0 960 540" width="960" height="540" xmlns="http://www.w3.org/2000/svg" xmlns:xlink="http://www.w3.org/1999/xlink" version="1.1"><rect x="0" y="0" width="960" height="540" fill="#ffffff"></rect><path d="M0 381L22.8 387C45.7 393 91.3 405 137 411.8C182.7 418.7 228.3 420.3 274 419.3C319.7 418.3 365.3 414.7 411.2 407.5C457 400.3 503 389.7 548.8 381.2C594.7 372.7 640.3 366.3 686 369.8C731.7 373.3 777.3 386.7 823 393.7C868.7 400.7 914.3 401.3 937.2 401.7L960 402L960 541L937.2 541C914.3 541 868.7 541 823 541C777.3 541 731.7 541 686 541C640.3 541 594.7 541 548.8 541C503 541 457 541 411.2 541C365.3 541 319.7 541 274 541C228.3 541 182.7 541 137 541C91.3 541 45.7 541 22.8 541L0 541Z" fill="#000000"></path><path d="M0 434L22.8 431.7C45.7 429.3 91.3 424.7 137 416C182.7 407.3 228.3 394.7 274 396.2C319.7 397.7 365.3 413.3 411.2 422.8C457 432.3 503 435.7 548.8 435.8C594.7 436 640.3 433 686 426C731.7 419 777.3 408 823 411.2C868.7 414.3 914.3 431.7 937.2 440.3L960 449L960 541L937.2 541C914.3 541 868.7 541 823 541C777.3 541 731.7 541 686 541C640.3 541 594.7 541 548.8 541C503 541 457 541 411.2 541C365.3 541 319.7 541 274 541C228.3 541 182.7 541 137 541C91.3 541 45.7 541 22.8 541L0 541Z" fill="#1d1d1d"></path><path d="M0 431L22.8 428C45.7 425 91.3 419 137 415.3C182.7 411.7 228.3 410.3 274 416.7C319.7 423 365.3 437 411.2 443.3C457 449.7 503 448.3 548.8 443.8C594.7 439.3 640.3 431.7 686 429.5C731.7 427.3 777.3 430.7 823 434.3C868.7 438 914.3 442 937.2 444L960 446L960 541L937.2 541C914.3 541 868.7 541 823 541C777.3 541 731.7 541 686 541C640.3 541 594.7 541 548.8 541C503 541 457 541 411.2 541C365.3 541 319.7 541 274 541C228.3 541 182.7 541 137 541C91.3 541 45.7 541 22.8 541L0 541Z" fill="#333333"></path><path d="M0 484L22.8 483.7C45.7 483.3 91.3 482.7 137 480C182.7 477.3 228.3 472.7 274 468.5C319.7 464.3 365.3 460.7 411.2 461.5C457 462.3 503 467.7 548.8 465.8C594.7 464 640.3 455 686 455.3C731.7 455.7 777.3 465.3 823 469.7C868.7 474 914.3 473 937.2 472.5L960 472L960 541L937.2 541C914.3 541 868.7 541 823 541C777.3 541 731.7 541 686 541C640.3 541 594.7 541 548.8 541C503 541 457 541 411.2 541C365.3 541 319.7 541 274 541C228.3 541 182.7 541 137 541C91.3 541 45.7 541 22.8 541L0 541Z" fill="#4b4b4b"></path><path d="M0 478L22.8 475.5C45.7 473 91.3 468 137 468.5C182.7 469 228.3 475 274 480.7C319.7 486.3 365.3 491.7 411.2 490.3C457 489 503 481 548.8 477.8C594.7 474.7 640.3 476.3 686 476.7C731.7 477 777.3 476 823 480C868.7 484 914.3 493 937.2 497.5L960 502L960 541L937.2 541C914.3 541 868.7 541 823 541C777.3 541 731.7 541 686 541C640.3 541 594.7 541 548.8 541C503 541 457 541 411.2 541C365.3 541 319.7 541 274 541C228.3 541 182.7 541 137 541C91.3 541 45.7 541 22.8 541L0 541Z" fill="#646464"></path><path d="M0 513L22.8 511.8C45.7 510.7 91.3 508.3 137 508.5C182.7 508.7 228.3 511.3 274 511.3C319.7 511.3 365.3 508.7 411.2 509.3C457 510 503 514 548.8 511.3C594.7 508.7 640.3 499.3 686 498.5C731.7 497.7 777.3 505.3 823 509.2C868.7 513 914.3 513 937.2 513L960 513L960 541L937.2 541C914.3 541 868.7 541 823 541C777.3 541 731.7 541 686 541C640.3 541 594.7 541 548.8 541C503 541 457 541 411.2 541C365.3 541 319.7 541 274 541C228.3 541 182.7 541 137 541C91.3 541 45.7 541 22.8 541L0 541Z" fill="#7f7f7f"></path></svg>